<svg width="583" height="536" viewBox="0 0 583 536" fill="none" xmlns="http://www.w3.org/2000/svg">
<rect x="227" y="177" width="128" height="128" rx="4" fill="white"/>
<g filter="url(#filter0_d_247_36)">
<path d="M326.73 256.441C327.99 257.48 328.194 259.345 327.106 260.563C323.01 265.146 318.106 268.916 312.64 271.671C306.304 274.863 299.365 276.616 292.301 276.806C285.237 276.997 278.216 275.621 271.725 272.774C266.126 270.318 261.035 266.819 256.709 262.463C255.558 261.304 255.663 259.432 256.867 258.328L261.387 254.182C262.625 253.046 264.547 253.158 265.758 254.323C268.885 257.332 272.511 259.765 276.475 261.503C281.368 263.649 286.66 264.686 291.985 264.543C297.309 264.399 302.54 263.079 307.316 260.672C311.186 258.721 314.683 256.096 317.652 252.92C318.799 251.693 320.712 251.48 322.008 252.549L326.73 256.441Z" fill="#49D66D"/>
</g>
<g filter="url(#filter1_d_247_36)">
<rect width="31.8045" height="11.4099" rx="3" transform="matrix(0.709986 0.704215 -0.727605 0.685996 270.768 219.732)" fill="#49D66D"/>
<rect width="47.4196" height="11.4024" rx="3" transform="matrix(-0.723777 0.690034 -0.713899 -0.700249 319.543 217.375)" fill="#49D66D"/>
</g>
<path d="M397.703 256H394.891V235.984H387.781V233.453H404.812V235.984H397.703V256ZM406.719 256V239.75H409.438V256H406.719ZM408.078 237.016C407.156 237.016 406.391 236.25 406.391 235.328C406.391 234.391 407.156 233.641 408.078 233.641C409.016 233.641 409.781 234.391 409.781 235.328C409.781 236.25 409.016 237.016 408.078 237.016ZM419.266 256.281C415.125 256.281 412.312 252.969 412.312 247.875C412.312 242.781 415.109 239.469 419.203 239.469C421.531 239.469 423.406 240.609 424.375 242.391H424.438V233.453H427.156V256H424.562V253.25H424.516C423.469 255.125 421.609 256.281 419.266 256.281ZM419.781 241.859C416.906 241.859 415.094 244.203 415.094 247.875C415.094 251.562 416.906 253.891 419.781 253.891C422.578 253.891 424.453 251.516 424.453 247.875C424.453 244.25 422.578 241.859 419.781 241.859ZM432.172 262.078C431.844 262.078 431.297 262.047 431 261.984V259.703C431.297 259.766 431.719 259.781 432.062 259.781C433.578 259.781 434.422 259.047 435.047 257.156L435.422 256.016L429.422 239.75H432.328L436.828 253.281H436.875L441.375 239.75H444.234L437.844 257.141C436.453 260.938 435.109 262.078 432.172 262.078ZM449.625 256H446.812V233.453H460.5V235.984H449.625V243.734H459.609V246.234H449.625V256ZM463.438 256V233.453H466.156V256H463.438ZM476.562 256.281C472.062 256.281 469.031 253.047 469.031 247.875C469.031 242.688 472.062 239.469 476.562 239.469C481.047 239.469 484.078 242.688 484.078 247.875C484.078 253.047 481.047 256.281 476.562 256.281ZM476.562 253.891C479.438 253.891 481.312 251.703 481.312 247.875C481.312 244.047 479.438 241.859 476.562 241.859C473.688 241.859 471.797 244.047 471.797 247.875C471.797 251.703 473.688 253.891 476.562 253.891ZM507.5 239.75L502.969 256H500.203L496.531 243.422H496.469L492.812 256H490.047L485.5 239.75H488.203L491.453 252.969H491.516L495.188 239.75H497.812L501.5 252.969H501.562L504.812 239.75H507.5Z" fill="white"/>
<defs>
<filter id="filter0_d_247_36" x="0.902344" y="0.859375" width="581.91" height="534.964" filterUnits="userSpaceOnUse" color-interpolation-filters="sRGB">
<feFlood flood-opacity="0" result="BackgroundImageFix"/>
<feColorMatrix in="SourceAlpha" type="matrix" values="0 0 0 0 0 0 0 0 0 0 0 0 0 0 0 0 0 0 127 0" result="hardAlpha"/>
<feMorphology radius="5" operator="dilate" in="SourceAlpha" result="effect1_dropShadow_247_36"/>
<feOffset dy="4"/>
<feGaussianBlur stdDeviation="125"/>
<feComposite in2="hardAlpha" operator="out"/>
<feColorMatrix type="matrix" values="0 0 0 0 0 0 0 0 0 0 0 0 0 0 0 0 0 0 0.1 0"/>
<feBlend mode="normal" in2="BackgroundImageFix" result="effect1_dropShadow_247_36"/>
<feBlend mode="normal" in="SourceGraphic" in2="effect1_dropShadow_247_36" result="shape"/>
</filter>
<filter id="filter1_d_247_36" x="71.7285" y="36.6123" width="464.551" height="448.263" filterUnits="userSpaceOnUse" color-interpolation-filters="sRGB">
<feFlood flood-opacity="0" result="BackgroundImageFix"/>
<feColorMatrix in="SourceAlpha" type="matrix" values="0 0 0 0 0 0 0 0 0 0 0 0 0 0 0 0 0 0 127 0" result="hardAlpha"/>
<feMorphology radius="5" operator="dilate" in="SourceAlpha" result="effect1_dropShadow_247_36"/>
<feOffset dx="13" dy="31"/>
<feGaussianBlur stdDeviation="100"/>
<feComposite in2="hardAlpha" operator="out"/>
<feColorMatrix type="matrix" values="0 0 0 0 0 0 0 0 0 0 0 0 0 0 0 0 0 0 0.1 0"/>
<feBlend mode="normal" in2="BackgroundImageFix" result="effect1_dropShadow_247_36"/>
<feBlend mode="normal" in="SourceGraphic" in2="effect1_dropShadow_247_36" result="shape"/>
</filter>
</defs>
</svg>
